<svg class="w-5" role="img" fill="currentColor" xmlns="http://www.w3.org/2000/svg" viewBox="0 0 20.83 16.14"><title>Discord icon</title><defs><clipPath id="clippath"><rect class="cls-2" width="20.83" height="16.14"></rect></clipPath></defs><g id="Layer_1-2"><g><path d="M17.63,1.44c-1.33-.61-2.75-1.06-4.24-1.32-.03,0-.05,0-.07,.03-.18,.33-.39,.75-.53,1.08-1.6-.24-3.19-.24-4.76,0-.14-.34-.35-.76-.54-1.08-.01-.02-.04-.04-.07-.03-1.49,.26-2.91,.71-4.24,1.32-.01,0-.02,.01-.03,.02C.46,5.5-.28,9.43,.09,13.32c0,.02,.01,.04,.03,.05,1.78,1.31,3.51,2.1,5.2,2.63,.03,0,.06,0,.07-.02,.4-.55,.76-1.12,1.06-1.73,.02-.04,0-.08-.04-.09-.57-.21-1.11-.48-1.62-.77-.04-.02-.04-.08,0-.11,.11-.08,.22-.17,.32-.25,.02-.02,.05-.02,.07,0,3.41,1.56,7.1,1.56,10.47,0,.02-.01,.05,0,.07,0,.1,.09,.21,.17,.32,.25,.04,.03,.04,.09,0,.11-.52,.3-1.06,.56-1.63,.77-.04,.01-.05,.06-.04,.09,.31,.61,.67,1.18,1.06,1.73,.02,.02,.05,.03,.07,.02,1.7-.53,3.43-1.32,5.21-2.63,.02-.01,.03-.03,.03-.05,.43-4.49-.73-8.4-3.08-11.86,0-.01-.02-.02-.03-.02ZM6.96,10.95c-1.03,0-1.87-.94-1.87-2.1s.83-2.1,1.87-2.1,1.89,.95,1.87,2.1c0,1.16-.83,2.1-1.87,2.1Zm6.92,0c-1.03,0-1.87-.94-1.87-2.1s.83-2.1,1.87-2.1,1.89,.95,1.87,2.1c0,1.16-.82,2.1-1.87,2.1Z"></path></g></g></svg>