<svg class="full-logo h-8 lgr:h-auto w-auto" xmlns="http://www.w3.org/2000/svg" width="195.854" height="40.235" viewBox="0 0 195.854 40.235">
  <g id="ROCCAT_Logo" data-name="ROCCAT Logo" transform="translate(-382.472 -478.855)">
    <path id="XMLID_29_" d="M49.843,35.424c.072-.526.143-1.075.191-1.6-6.762-3.464-16.2-3.154-16.2-3.154a39.947,39.947,0,0,1,16.175-.191,20.115,20.115,0,0,0-24.9-17.68c3.154.048,12.472,1,16.725,10.489a38.955,38.955,0,0,0-7.383-2.27,5.848,5.848,0,0,1-1.577,3.417c1.505-2.748.717-6.045,0-5.83A34.734,34.734,0,0,1,28.149,19.8,17.741,17.741,0,0,0,21,22.88l.526-1.362c-.98.1-3.345,2.772-3.345,2.772l.287-1.529c-1.505,1.7-2.509,5.089-2.7,5.447-.167.358-2.963,2.772-2.8,3.656.143.717,2.222.263,2.222.263a3,3,0,0,1-.048.358c-.191.382-1,.072-1.481.311s-.5.43-.072,2.15,1.744,1.434,1.744,1.434c.334,1.457,2.222,2.413,2.222,2.413-1.29-2.509.5-3.464.5-3.464A3.554,3.554,0,0,0,20.1,37.215c-1.1-2.294-1.457-3.321-.55-3.99,1.935-1.434,2.485-1.84,5.137.6,2.676,2.413-2.174,3.99-2.174,3.99-.526-.1-2.031-1.816-2.031-1.816a9.091,9.091,0,0,0,.55,2.318,5.439,5.439,0,0,1-3.058-1.481A13.351,13.351,0,0,0,19,40.513c1.29,3.441,4.492.358,4.492.358,3.512-2.413,6.236-2.15,6.236-2.15,2.294.645,4.683,8.506,4.683,8.506a17.974,17.974,0,0,1-18.182-.239A20.156,20.156,0,0,0,47.86,41.636a41.062,41.062,0,0,0-9.246-3.894c1.888-.191,7.192.86,10.178,1.816.143-.382.287-.788.406-1.171a38.434,38.434,0,0,0-13.093-4.3A61.37,61.37,0,0,1,49.843,35.424ZM18.9,27.658l-1.816.43s.191-1.529,2.915-2.007Z" transform="translate(369.503 466.655)" fill="#fff"></path>
    <path id="XMLID_29_2" data-name="XMLID_29_" d="M140.924,38.234a.406.406,0,0,1,.057.171c-.057.343-.114.714-.171,1.057-.029.143-.086.171-.2.171H119.842c-.171,0-.257-.086-.2-.257l.857-4.97c.029-.143.086-.171.2-.171h16.939a.2.2,0,0,1,.171.086C138.839,35.634,139.867,36.92,140.924,38.234Zm25.995-4H150.55a.157.157,0,0,0-.143.057c-1.685,1.314-3.4,2.657-5.085,3.971-.057.029-.057.086-.086.143-.057.343-.114.657-.171,1-.029.171.029.257.2.257h20.767c.143,0,.2-.057.2-.171.286-1.657.571-3.314.886-4.97C167.176,34.32,167.09,34.235,166.918,34.235ZM189.742,49H174.688c-.171,0-.257-.086-.2-.257.314-1.828.628-3.685.971-5.513.029-.171-.029-.257-.2-.257-1.714-.057-3.456-.114-5.17-.2a.2.2,0,0,0-.228.171l-1.4,8a.362.362,0,0,0,.029.171c.8,1.057,1.628,2.114,2.428,3.2a.2.2,0,0,0,.171.086h17.768c.143,0,.2-.057.2-.171.286-1.657.571-3.314.886-4.97C189.971,49.06,189.914,49,189.742,49Zm-49.59-7.37c-1.657-.057-3.342-.114-5-.2a.2.2,0,0,0-.229.171c-.428,2.4-.857,4.77-1.257,7.17-.029.143-.086.171-.2.171h-9.627c-.171,0-.257-.086-.2-.257.429-2.485.886-4.942,1.314-7.427.029-.171-.029-.257-.2-.257-1.714-.057-3.456-.143-5.17-.2a.2.2,0,0,0-.229.171c-.6,3.342-1.171,6.713-1.771,10.055a.362.362,0,0,0,.029.171c.771,1,1.543,2.028,2.314,3.028a.2.2,0,0,0,.171.086h17.854c.143,0,.2-.057.2-.171.714-4.113,1.457-8.2,2.171-12.312C140.381,41.747,140.324,41.662,140.153,41.633ZM112.444,34.32a.2.2,0,0,0-.171-.086h-17c-.143,0-.2.057-.2.171-1.171,6.57-2.314,13.14-3.485,19.71-.029.171.029.257.2.257h5.028c.143,0,.2-.057.2-.171.4-2.314.828-4.628,1.228-6.941.029-.143.086-.171.2-.171H101.5a.157.157,0,0,1,.171.114c1.428,2.371,2.828,4.742,4.256,7.084.057.086.086.114.171.114h5.827c.229,0,.314-.143.171-.314-1.343-2.228-2.685-4.428-4.028-6.656-.114-.2-.029-.314.171-.314H113.7c.143,0,.2-.057.2-.171.343-2,.714-3.971,1.057-5.97.029-.171-.029-.257-.2-.257l-4.913-.171a.2.2,0,0,0-.229.171c-.114.686-.257,1.371-.371,2.085-.029.143-.086.171-.2.171H99.275c-.171,0-.257-.086-.2-.257.171-.943.343-1.914.486-2.857.029-.143.086-.171.2-.171H115.1c.143,0,.2-.057.2-.171l.2-1.057a.362.362,0,0,0-.029-.171C114.472,36.92,113.472,35.634,112.444,34.32ZM164.319,49H149.265c-.171,0-.257-.086-.2-.257.371-2.142.771-4.313,1.143-6.456.029-.171-.029-.257-.2-.257-1.714-.057-3.428-.143-5.17-.2a.2.2,0,0,0-.229.171c-.514,2.971-1.057,5.97-1.6,8.941a.362.362,0,0,0,.029.171c.8,1.057,1.628,2.114,2.428,3.2a.2.2,0,0,0,.171.086H163.4c.143,0,.2-.057.2-.171.286-1.657.571-3.314.886-4.97C164.548,49.06,164.49,49,164.319,49Zm73.156,2.028h-1.2l-.514,2.342h.6l.143-.686h.514q.257,0,.257.171a.311.311,0,0,1-.029.143l-.086.371h.6l.114-.486c0-.057.029-.086.029-.143,0-.171-.086-.257-.286-.314a.488.488,0,0,0,.4-.286,1.732,1.732,0,0,0,.171-.686C238.19,51.174,237.99,51.031,237.475,51.031Zm0,1a.3.3,0,0,1-.314.171h-.543l.143-.657h.543c.2,0,.257.029.257.143A1.508,1.508,0,0,1,237.475,52.031Zm-4.428-6.856c-1.657-.057-3.342-.114-5-.2a.2.2,0,0,0-.229.171c-.514,3-1.057,5.97-1.571,8.97-.029.171.029.257.2.257h5.028a.2.2,0,0,0,.228-.171c.514-2.914,1.028-5.856,1.543-8.77C233.276,45.261,233.191,45.2,233.048,45.175Zm9.684-10.941H222.079c-.143,0-.2.057-.2.171-.286,1.657-.571,3.314-.886,4.97-.029.171.029.257.2.257h20.653c.143,0,.2-.057.2-.171.286-1.657.571-3.314.885-4.97C242.989,34.32,242.9,34.235,242.732,34.235Zm-50.39,0H175.974a.157.157,0,0,0-.143.057c-1.714,1.314-3.4,2.657-5.113,3.971-.057.029-.057.086-.086.143-.057.343-.114.657-.171,1-.029.171.029.257.2.257h20.767c.143,0,.2-.057.2-.171.286-1.657.571-3.314.886-4.97C192.57,34.32,192.513,34.235,192.342,34.235Zm25.395,0H201.283a.157.157,0,0,0-.143.057c-1.714,1.314-3.4,2.657-5.085,3.971-.057.029-.057.086-.086.143-.057.343-.114.657-.171,1-.029.171.029.257.2.257h20.853c.143,0,.2-.057.2-.171.286-1.657.571-3.314.886-4.97C217.994,34.32,217.908,34.235,217.737,34.235Zm-1.8,10.284-20.71-.771a.2.2,0,0,0-.229.171c-.6,3.4-1.2,6.827-1.8,10.226-.029.171.029.257.2.257h5.2c.143,0,.2-.057.2-.171.314-1.885.657-3.742.971-5.627.029-.143.086-.171.228-.171h9.6c.171,0,.257.086.2.257-.314,1.828-.657,3.656-.971,5.456-.029.171.029.257.2.257h5.2c.143,0,.2-.057.2-.171.543-3.142,1.114-6.284,1.657-9.427C216.166,44.6,216.108,44.518,215.937,44.518ZM237.5,50.06a2.765,2.765,0,0,0-2.685,2.6,1.65,1.65,0,0,0,1.714,1.714,2.76,2.76,0,0,0,2.657-2.6A1.643,1.643,0,0,0,237.5,50.06Zm-.885,3.971a1.374,1.374,0,0,1-1.4-1.428,2.269,2.269,0,0,1,2.2-2.142,1.367,1.367,0,0,1,1.4,1.4A2.316,2.316,0,0,1,236.619,54.031Z" transform="translate(335.377 454.625)" fill="#fff"></path>
  </g>
</svg>