<svg class="w-5" role="img" fill="currentColor" viewBox="0 0 21.06 17.55" xmlns="http://www.w3.org/2000/svg"><title>Reddit icon</title><g><g id="Icons"><g><path id="Reddit" d="M13.66,11.55c-.79,0-1.45-.63-1.45-1.41s.66-1.43,1.45-1.43,1.43,.65,1.43,1.43-.64,1.41-1.43,1.41m.33,2.74c-.73,.73-1.86,1.08-3.46,1.08,0,0,0,0-.01,0,0,0,0,0-.01,0-1.59,0-2.72-.35-3.46-1.08-.22-.22-.22-.58,0-.81,.23-.22,.59-.22,.81,0,.5,.5,1.37,.74,2.64,.74,0,0,0,0,.01,0,0,0,0,0,.01,0,1.27,0,2.14-.24,2.64-.74,.23-.22,.59-.22,.81,0,.23,.22,.23,.58,0,.81M5.97,10.14c0-.78,.66-1.43,1.45-1.43s1.43,.65,1.43,1.43-.64,1.41-1.43,1.41-1.45-.63-1.45-1.41M17.55,1.14c.53,0,.97,.43,.97,.96s-.43,.96-.97,.96-.97-.43-.97-.96,.43-.96,.97-.96m3.51,7.45c0-1.38-1.13-2.51-2.53-2.51-.6,0-1.16,.21-1.6,.56-1.54-.96-3.5-1.54-5.6-1.66l1.09-3.43,3.01,.7c.08,1.09,1,1.94,2.11,1.94s2.12-.94,2.12-2.1-.95-2.1-2.12-2.1c-.82,0-1.53,.46-1.88,1.13l-3.5-.82c-.29-.07-.59,.1-.68,.38l-1.36,4.26c-2.26,.05-4.39,.64-6.04,1.65-.43-.33-.97-.53-1.56-.53-1.4,0-2.53,1.12-2.53,2.51,0,.85,.43,1.61,1.1,2.06-.03,.2-.04,.4-.04,.6,0,1.73,1.01,3.34,2.86,4.53,1.76,1.14,4.1,1.77,6.58,1.77s4.81-.63,6.58-1.77c1.84-1.19,2.85-2.8,2.85-4.53,0-.18-.01-.37-.03-.55,.71-.45,1.17-1.23,1.17-2.12"></path></g></g></g></svg>