<svg class="w-5" role="img" fill="currentColor" viewBox="0 0 16 18.05" xmlns="http://www.w3.org/2000/svg"><title>TikTok icon</title><g><g><path d="M0,15.34l.06,.17s-.03-.08-.06-.17Zm2.44-3.95c.11-.94,.48-1.46,1.17-2,.99-.73,2.23-.32,2.23-.32v-2.44c.3,0,.6,.01,.9,.06v3.14s-1.24-.41-2.23,.32c-.69,.54-1.06,1.06-1.17,2,0,.51,.09,1.17,.51,1.75-.11-.06-.21-.12-.32-.19-.92-.65-1.09-1.62-1.09-2.31ZM11.86,2.12c-.68-.78-.94-1.57-1.03-2.12h.86s-.17,1.45,1.08,2.88l.02,.02c-.34-.22-.65-.48-.92-.78h0Zm4.14,2.21v3.08s-1.1-.05-1.91-.26c-1.13-.3-1.86-.76-1.86-.76,0,0-.5-.33-.54-.35v6.36c0,.35-.09,1.24-.38,1.98-.37,.96-.94,1.6-1.05,1.73,0,0-.7,.86-1.92,1.43-1.1,.52-2.07,.51-2.36,.52,0,0-1.67,.07-3.18-.95-.33-.23-.63-.48-.91-.76h0c1.51,1.03,3.18,.96,3.18,.96,.29-.01,1.26,0,2.36-.52,1.22-.58,1.92-1.43,1.92-1.43,.11-.13,.68-.76,1.05-1.73,.28-.74,.38-1.62,.38-1.98V5.28s.54,.35,.54,.35c0,0,.73,.46,1.86,.76,.81,.21,1.91,.26,1.91,.26v-2.41c.38,.09,.7,.11,.9,.09Z"></path><path d="M15.1,4.24v2.41s-1.1-.05-1.91-.26c-1.13-.3-1.86-.76-1.86-.76,0,0-.5-.33-.54-.35v6.36c0,.35-.09,1.24-.38,1.98-.37,.96-.94,1.6-1.05,1.73,0,0-.7,.86-1.92,1.43-1.1,.52-2.07,.51-2.36,.52,0,0-1.67,.07-3.18-.95h0c-.16-.17-.31-.34-.45-.52-.48-.61-.78-1.34-.85-1.54H.59c-.12-.36-.37-1.23-.33-2.06,.06-1.47,.56-2.38,.69-2.6,.35-.62,.8-1.17,1.34-1.63,.47-.4,1.01-.72,1.59-.94,.62-.26,1.29-.4,1.97-.41v2.44s-1.24-.41-2.23,.32c-.69,.54-1.06,1.06-1.17,2,0,.69,.17,1.66,1.09,2.31,.11,.07,.21,.14,.32,.19,.16,.22,.36,.41,.58,.57,.91,.6,1.66,.64,2.63,.25,.65-.26,1.13-.84,1.36-1.49,.14-.41,.14-.81,.14-1.23V0h2.26c.09,.55,.35,1.34,1.03,2.12,.27,.29,.58,.56,.92,.78,.1,.11,.61,.64,1.26,.96,.33,.17,.69,.3,1.06,.38h0Z"></path></g></g></svg>